<svg width="25" height="25" viewBox="0 0 25 25" fill="none" xmlns="http://www.w3.org/2000/svg">
  <path d="M18.5 12.5C18.25 9.5 21 8 21.125 7.875C19.625 5.875 17.25 5.5 16.625 5.5C14.75 5.25 12.875 6.5 12 6.5C11.125 6.5 9.75 5.5 8.25 5.5C6.375 5.75 4.625 6.75 3.75 8.25C1.5 12 3.125 17.25 5.25 20.25C6.375 21.75 7.625 23.25 9.25 23.25C10.75 23.125 11.375 22.25 13 22.25C14.625 22.25 15.125 23.25 16.75 23.25C18.4375 23.125 19.5625 21.75 20.5625 20.25C21.625 18.5 22.125 16.75 22.125 16.625C22.125 16.625 19.25 15.5 19.25 12.25C19.25 12.125 18.5 12.125 18.5 12.5ZM15.5 5C16.375 4 17 2.625 16.75 1.5C16 1.5 15 2 14.375 2.75C13.875 3.375 13.25 4.75 13.5 6C14.5 6.125 15.375 5.625 15.5 5Z" fill="black"/>
</svg>