<svg width="100" height="50" viewBox="0 0 100 50" fill="none" xmlns="http://www.w3.org/2000/svg">
<path d="M0 0C-9.39336e-07 6.56623 1.29329 13.068 3.80601 19.1343C6.31876 25.2006 10.0017 30.7126 14.6446 35.3555C19.2876 39.9982 24.7995 43.6813 30.8658 46.1941C36.932 48.7069 43.4338 50 50 50C56.5659 50 63.0677 48.7069 69.134 46.1941C75.2003 43.6813 80.7122 39.9982 85.3552 35.3555C89.9982 30.7126 93.681 25.2006 96.1938 19.1343C98.7065 13.068 100 6.56623 100 0H84.3747C79.197 0 75.1591 4.33903 73.2625 9.15669C73.2087 9.294 73.1533 9.43066 73.0969 9.56732C71.8405 12.6003 69.9991 15.3564 67.6775 17.6778C65.3561 19.9991 62.6 21.8408 59.567 23.0972C56.534 24.3536 53.2831 25.0002 50 25.0002C46.7169 25.0002 43.466 24.3536 40.433 23.0972C37.3997 21.8408 34.6439 19.9991 32.3222 17.6778C30.0008 15.3564 28.1593 12.6003 26.903 9.56732C25.6466 6.534 25 3.28312 25 0H0Z" fill="url(#paint0_linear_1_18751)"/>
<defs>
<linearGradient id="paint0_linear_1_18751" x1="3.27835e-06" y1="25.0002" x2="100" y2="25.0002" gradientUnits="userSpaceOnUse">
<stop stop-color="#F8BCC6"/>
<stop offset="1" stop-color="#F83758"/>
</linearGradient>
</defs>
</svg>
