<svg width="100" height="50" viewBox="0 0 100 50" fill="none" xmlns="http://www.w3.org/2000/svg">
<path d="M99.9999 50C99.9999 36.7393 94.732 24.0214 85.3552 14.6446C75.9783 5.26785 63.2607 1.73895e-06 49.9999 0C36.7392 -1.73894e-06 24.0215 5.26785 14.6447 14.6446C5.26785 24.0214 0 36.7393 0 50H15.6252C20.8029 50 24.8409 45.661 26.7374 40.843C27.9825 37.6798 29.8719 34.7728 32.3222 32.3222C37.0106 27.6339 43.3696 25 49.9999 25C56.6303 25 62.9893 27.6339 67.6777 32.3222C72.3661 37.0106 74.9998 43.3696 74.9998 50H99.9999Z" fill="url(#paint0_linear_1_18749)"/>
<defs>
<linearGradient id="paint0_linear_1_18749" x1="99.9999" y1="25" x2="0" y2="25" gradientUnits="userSpaceOnUse">
<stop stop-color="#CFE2FC"/>
<stop offset="1" stop-color="#4392F9"/>
</linearGradient>
</defs>
</svg>
